<?xml version="1.0" encoding="UTF-8"?>
<!-- My Brand New Logo (1.0.81), id: VqqpXnOmZPUKmnj6Bqky (1.0.7), date: 2021-06-22 09:40 -->
<svg version="1.1" preserveAspectRatio="xMidYMid meet" xmlns="http://www.w3.org/2000/svg" xmlns:xlink="http://www.w3.org/1999/xlink" viewBox="43.619 332.267 912.774 335.624" width="1000" height="368">
	<defs>
		<g id="def-1" transform="matrix(2.864, 0, 0, 2.864, 415.382, 335.557)" fill="#fff" stroke="none" stroke-width="1">
			<g transform="translate(184.544, -222.8)">
				<g></g>
				<g>
					<path d=" M-144.7,251.1 c0.7,0.7,0.7,1.8,0,2.5 l-12.7,12.7 c-0.3,0.3 -0.8,0.5 -1.2,0.5 c-0.1,0 -0.2,0 -0.3,0 c-0.3 -0.1 -0.6 -0.2 -0.9 -0.5 c0,0,0,0,0,0 l-5.4 -5.4 c-0.7 -0.7 -0.7 -1.8,0 -2.5 c0.7 -0.7,1.8 -0.7,2.5,0 l4.1,4.1 l11.4 -11.4 C-146.5,250.4 -145.4,250.4 -144.7,251.1 z M-126,248.8 l0,0.4 c0,0,0,0.1,0,0.1 l-0.1,9.1 c0,0,0,0,0,0.1 c0,1.1,0,2 -0.1,3 c-0.2,4.5 -1.8,8.8 -5,13.1 c-3.6,4.9 -8.5,8.9 -15,12.4 c-2,1 -4,1.9 -6,2.8 c-0.5,0.2 -1,0.4 -1.4,0.6 c-0.5,0.2 -1,0.3 -1.5,0.3 c-0.4,0 -0.8 -0.1 -1.2 -0.2 c-8.1 -3 -14.4 -7 -19.5 -12.1 c-4 -4 -6.4 -8.3 -7.5 -12.9 c-0.5 -2 -0.7 -4 -0.7 -5.9 c-0.1 -5.5,0 -11,0 -16.4 c0 -1.9,0 -3.9,0 -5.8 c0 -2.3,1 -3.4,3.3 -3.5 c7.8 -0.5,15.2 -3.4,23.4 -9 c1.9 -1.3,2.7 -1.3,4.7,0 c6.2,4.3,11.7,6.9,17.5,8.2 c1.5,0.3,3,0.5,4.6,0.7 c0.5,0.1,1.1,0.1,1.6,0.2 c2.4,0.3,2.9,1.9,2.9,3.2 c0,3,0,6.1,0,9.1 L-126,248.8 C-126,248.8 -126,248.8 -126,248.8 z M-129.5,245.6 c0 -2.9,0 -5.7,0 -8.6 c-0.5 -0.1 -0.9 -0.1 -1.4 -0.2 c-1.6 -0.2 -3.3 -0.4 -5 -0.8 c-6.2 -1.4 -12.3 -4.2 -18.8 -8.7 c-0.1 -0.1 -0.2 -0.2 -0.3 -0.2 c-0.1,0.1 -0.2,0.2 -0.3,0.2 c-8.8,6 -16.8,9.1 -25.2,9.7 c0,0,0,0,0,0 c0,1.9,0,3.9,0,5.8 c0,5.4,0,10.9,0,16.4 c0,1.7,0.2,3.4,0.6,5.2 c0.9,4,3.1,7.7,6.6,11.3 c4.7,4.8,10.7,8.5,18.2,11.3 c0,0,0.1,0,0.1,0 c0.5 -0.2,1 -0.4,1.4 -0.6 c1.9 -0.8,3.9 -1.7,5.7 -2.6 c6 -3.2,10.5 -6.9,13.8 -11.3 c2.7 -3.7,4.1 -7.4,4.3 -11.2 c0 -0.9,0.1 -1.8,0.1 -2.9 c0,0,0,0,0,0 l0 -0.3 l0.1 -8.9 c0,0,0 -0.1,0 -0.1 l0 -0.3 c0,0,0,0,0,0 V245.6 z"></path>
				</g>
			</g>
		</g>
		<path id="def-2" d="M98.366,607.111 L89.405,607.111 C85.52,607.111,84.33,607.983,83.696,610.441 L76.163,637.64 C74.815,642.319,74.497,647.79,74.497,647.79 L73.784,647.79 C73.784,647.79,73.308,642.239,72.039,637.561 L64.506,610.441 C63.872,607.983,62.603,607.111,58.559,607.111 L49.519,607.111 C47.14,607.111,46.426,608.221,47.219,610.362 L64.823,660.795 C65.537,662.856,66.647,663.412,68.947,663.412 L78.859,663.412 C81.158,663.412,82.189,662.936,82.982,660.636 L100.507,610.362 C101.3,608.221,100.744,607.111,98.366,607.111 Z M156.966,660.16 L138.648,609.728 C137.855,607.666,136.824,607.111,134.525,607.111 L125.485,607.111 C123.185,607.111,122.155,607.587,121.362,609.886 L103.123,660.16 C102.33,662.301,102.806,663.412,105.264,663.412 L113.591,663.412 C117.555,663.412,118.586,662.539,119.379,660.081 L121.203,654.372 L138.331,654.372 L140.155,660.081 C140.789,662.539,141.979,663.412,146.102,663.412 L154.666,663.412 C157.045,663.412,157.759,662.301,156.966,660.16 Z M131.829,632.644 L134.763,641.922 L124.851,641.922 L127.785,632.565 C129.371,627.252,129.291,621.543,129.291,621.543 L130.084,621.543 C130.084,621.543,130.243,627.252,131.829,632.644 Z M216.279,659.526 L205.812,639.702 C204.464,637.006,202.958,635.023,200.975,633.596 L215.407,610.6 C216.676,608.538,215.883,607.111,213.504,607.111 L204.385,607.111 C200.262,607.111,199.548,607.587,198.041,610.045 L186.623,628.045 L184.878,628.045 L184.878,610.441 C184.878,607.983,184.085,607.111,181.548,607.111 L172.587,607.111 C170.05,607.111,169.177,607.983,169.177,610.441 L169.177,660.081 C169.177,662.539,170.05,663.412,172.587,663.412 L181.548,663.412 C184.085,663.412,184.878,662.539,184.878,660.081 L184.878,641.922 L186.305,641.922 C189.319,641.922,190.429,643.35,191.698,645.887 L198.596,660.081 C199.944,662.856,201.451,663.412,205.654,663.412 L214.218,663.412 C216.835,663.412,217.39,661.667,216.279,659.526 Z M225.636,628.125 L225.636,642.398 C225.636,656.116,234.438,664.601,250.06,664.601 C262.271,664.601,269.884,659.605,273.214,650.724 C274.007,648.424,273.452,647.235,271.073,646.442 L262.589,643.429 C260.21,642.557,259.258,643.112,258.307,645.57 C257.038,648.98,254.5,650.724,250.06,650.724 C243.795,650.724,241.337,648.028,241.337,642.477 L241.337,628.045 C241.337,622.495,243.795,619.798,250.06,619.798 C254.5,619.798,256.879,621.384,258.307,624.953 C259.179,627.411,260.13,627.807,262.589,627.094 L271.073,624.08 C273.452,623.288,274.007,622.098,273.214,619.798 C269.884,610.917,262.271,605.922,250.06,605.922 C234.438,605.922,225.636,614.406,225.636,628.125 Z M286.536,610.283 L286.536,660.24 C286.536,662.619,287.329,663.412,289.708,663.412 L299.065,663.412 C301.444,663.412,302.237,662.619,302.237,660.24 L302.237,610.283 C302.237,607.904,301.444,607.111,299.065,607.111 L289.708,607.111 C287.329,607.111,286.536,607.904,286.536,610.283 Z M362.423,607.111 L354.335,607.111 C351.797,607.111,351.004,607.983,351.004,610.441 L351.004,623.446 C351.004,631.534,352.035,635.341,354.572,643.508 L353.938,643.508 C351.401,637.482,350.766,634.468,347.277,628.997 L334.273,608.697 C333.559,607.587,332.766,607.111,330.942,607.111 L321.585,607.111 C319.048,607.111,318.175,607.983,318.175,610.441 L318.175,660.081 C318.175,662.539,319.048,663.412,321.585,663.412 L329.594,663.412 C332.132,663.412,333.004,662.539,333.004,660.081 L333.004,647.156 C333.004,638.354,332.052,634.31,330.387,626.697 L331.021,626.697 C333.162,633.834,334.51,637.561,338,643.032 L350.211,661.826 C350.925,662.936,351.797,663.412,353.462,663.412 L362.423,663.412 C364.881,663.412,365.753,662.539,365.753,660.081 L365.753,610.441 C365.753,607.983,364.881,607.111,362.423,607.111 Z M411.269,592.679 L392,592.679 C389.939,592.679,389.146,593.234,389.146,595.534 L389.146,598.864 C389.146,601.164,389.701,601.719,392,601.719 L411.269,601.719 C413.569,601.719,414.203,601.164,414.203,598.864 L414.203,595.534 C414.203,593.234,413.569,592.679,411.269,592.679 Z M418.248,607.111 L385.022,607.111 C382.485,607.111,381.613,607.983,381.613,610.441 L381.613,660.081 C381.613,662.539,382.485,663.412,385.022,663.412 L418.961,663.412 C421.419,663.412,422.292,662.539,422.292,660.081 L422.292,652.865 C422.292,650.328,421.419,649.535,418.961,649.535 L397.313,649.535 L397.313,641.922 L414.045,641.922 C416.582,641.922,417.455,641.05,417.455,638.512 L417.455,631.376 C417.455,628.918,416.582,628.045,414.045,628.045 L397.313,628.045 L397.313,620.988 L418.248,620.988 C420.785,620.988,421.657,620.116,421.657,617.578 L421.657,610.441 C421.657,607.983,420.785,607.111,418.248,607.111 Z M475.738,607.111 L436.486,607.111 C433.948,607.111,433.155,607.983,433.155,610.441 L433.155,617.578 C433.155,620.116,433.948,620.988,436.486,620.988 L448.301,620.988 L448.301,660.081 C448.301,662.539,449.094,663.412,451.631,663.412 L460.592,663.412 C463.129,663.412,464.002,662.539,464.002,660.081 L464.002,620.988 L475.738,620.988 C478.275,620.988,479.147,620.116,479.147,617.578 L479.147,610.441 C479.147,607.983,478.275,607.111,475.738,607.111 Z M491.914,610.283 L491.914,660.24 C491.914,662.619,492.707,663.412,495.086,663.412 L504.443,663.412 C506.822,663.412,507.615,662.619,507.615,660.24 L507.615,610.283 C507.615,607.904,506.822,607.111,504.443,607.111 L495.086,607.111 C492.707,607.111,491.914,607.904,491.914,610.283 Z M561.061,643.429 L561.061,610.441 C561.061,607.983,560.188,607.111,557.651,607.111 L548.69,607.111 C546.153,607.111,545.36,607.983,545.36,610.441 L545.36,642.715 C545.36,656.037,553.607,664.601,569.228,664.601 C584.929,664.601,593.176,656.037,593.176,642.715 L593.176,610.441 C593.176,607.983,592.303,607.111,589.766,607.111 L580.805,607.111 C578.268,607.111,577.475,607.983,577.475,610.441 L577.475,643.429 C577.475,648.107,574.7,650.724,569.228,650.724 C563.757,650.724,561.061,648.107,561.061,643.429 Z M652.807,607.111 L644.718,607.111 C642.181,607.111,641.388,607.983,641.388,610.441 L641.388,623.446 C641.388,631.534,642.419,635.341,644.956,643.508 L644.322,643.508 C641.784,637.482,641.15,634.468,637.661,628.997 L624.656,608.697 C623.943,607.587,623.15,607.111,621.326,607.111 L611.969,607.111 C609.431,607.111,608.559,607.983,608.559,610.441 L608.559,660.081 C608.559,662.539,609.431,663.412,611.969,663.412 L619.978,663.412 C622.515,663.412,623.388,662.539,623.388,660.081 L623.388,647.156 C623.388,638.354,622.436,634.31,620.771,626.697 L621.405,626.697 C623.546,633.834,624.894,637.561,628.383,643.032 L640.595,661.826 C641.309,662.936,642.181,663.412,643.846,663.412 L652.807,663.412 C655.265,663.412,656.137,662.539,656.137,660.081 L656.137,610.441 C656.137,607.983,655.265,607.111,652.807,607.111 Z M716.957,607.111 L697.609,607.111 C695.072,607.111,694.199,607.983,694.199,610.441 L694.199,660.081 C694.199,662.539,695.072,663.412,697.609,663.412 L716.957,663.412 C732.579,663.412,741.301,654.848,741.301,641.209 L741.301,629.314 C741.301,615.596,732.579,607.111,716.957,607.111 Z M725.601,629.552 L725.601,640.971 C725.601,646.601,722.825,649.535,716.402,649.535 L709.9,649.535 L709.9,620.988 L716.402,620.988 C722.825,620.988,725.601,623.922,725.601,629.552 Z M781.822,607.111 L759.222,607.111 C756.685,607.111,755.813,607.983,755.813,610.441 L755.813,660.081 C755.813,662.539,756.685,663.412,759.222,663.412 L768.183,663.412 C770.72,663.412,771.513,662.539,771.513,660.081 L771.513,644.698 L773.337,644.698 C776.588,644.698,777.936,646.046,779.284,648.742 L784.359,659.605 C785.628,662.381,787.452,663.412,791.655,663.412 L800.219,663.412 C802.836,663.412,803.391,661.667,802.28,659.526 L795.144,645.966 C794.509,644.698,793.796,643.587,793.003,642.557 C798.395,639.543,801.567,633.993,801.567,626.221 C801.567,613.931,793.796,607.111,781.822,607.111 Z M785.311,626.142 C785.311,629.393,783.408,631.455,780.077,631.455 L771.513,631.455 L771.513,620.988 L780.077,620.988 C783.487,620.988,785.311,622.97,785.311,626.142 Z M814.809,628.125 L814.809,642.398 C814.809,656.116,823.532,664.601,839.233,664.601 C854.854,664.601,863.577,656.116,863.577,642.398 L863.577,628.125 C863.577,614.406,854.854,605.922,839.233,605.922 C823.532,605.922,814.809,614.406,814.809,628.125 Z M847.876,627.411 L847.876,643.112 C847.876,648.107,844.704,650.724,839.233,650.724 C833.682,650.724,830.51,648.107,830.51,643.112 L830.51,627.411 C830.51,622.415,833.682,619.798,839.233,619.798 C844.704,619.798,847.876,622.415,847.876,627.411 Z M913.771,589.666 L907.745,589.666 C904.811,589.666,903.859,589.904,902.511,591.41 L900.212,594.106 L897.753,591.41 C896.564,589.904,895.692,589.666,892.599,589.666 L885.938,589.666 C883.321,589.666,883.718,591.172,884.987,592.441 L892.996,600.529 C895.137,602.67,895.771,602.829,898.784,602.829 L900.925,602.829 C904.097,602.829,904.731,602.67,906.873,600.529 L914.802,592.441 C916.071,591.172,916.388,589.666,913.771,589.666 Z M876.423,623.684 C876.423,639.068,889.427,640.733,898.705,642.001 C903.939,642.715,907.983,643.587,907.983,646.68 C907.983,650.09,904.811,651.2,899.498,651.2 C895.057,651.2,891.965,649.773,890.537,646.997 C889.348,644.698,888.238,644.46,885.859,645.253 L878.405,647.949 C876.105,648.821,875.392,649.931,876.264,652.31 C879.277,660.557,887.524,664.601,899.339,664.601 C913.375,664.601,923.921,658.178,923.921,646.521 C923.921,631.534,912.027,629.314,902.828,628.045 C897.119,627.332,892.441,626.618,892.441,623.208 C892.441,620.433,894.582,619.085,899.974,619.085 C903.621,619.085,906.476,620.195,907.983,623.208 C909.251,625.508,910.124,625.825,912.265,624.873 L920.194,621.464 C922.573,620.512,923.208,619.323,922.097,617.023 C918.37,609.411,911.71,605.922,899.974,605.922 C884.828,605.922,876.423,613.217,876.423,623.684 Z M937.402,610.283 L937.402,660.24 C937.402,662.619,938.195,663.412,940.574,663.412 L949.931,663.412 C952.309,663.412,953.102,662.619,953.102,660.24 L953.102,610.283 C953.102,607.904,952.309,607.111,949.931,607.111 L940.574,607.111 C938.195,607.111,937.402,607.904,937.402,610.283 Z"></path>
		<mask id="mask-1" x="406.921" y="327.096" width="186.159" height="212.826" maskUnits="userSpaceOnUse" stroke-width="0">
			<rect x="415.382" y="335.557" width="169.235" height="195.903" fill="#000"></rect>
			<use xlink:href="#def-1" fill="#fff" stroke="#fff"></use>
		</mask>
		<mask id="mask-2" x="34.562" y="577.33" width="930.877" height="101.772" maskUnits="userSpaceOnUse" stroke-width="0">
			<rect x="39.188" y="581.956" width="921.625" height="92.52" fill="#000"></rect>
			<use xlink:href="#def-2" fill="#fff" stroke="#fff"></use>
		</mask>
	</defs>
	<g mask="url(#mask-1)">
		<rect x="415.382" y="335.557" width="169.235" height="195.903" fill="#10423f"></rect>
	</g>
	<g mask="url(#mask-2)">
		<rect x="39.188" y="581.956" width="921.625" height="92.52" fill="#10423f"></rect>
	</g>
</svg>
